<svg width="322" height="62" fill="none" xmlns="http://www.w3.org/2000/svg"><g clip-path="url(#a)"><path d="M28.4 60.7H12L0 16.9h13.8l1.2 7.2 5.1 24.5h.8L27.1 25l1.3-8.1h13.3L28.4 60.7zM68 47.5l-16.8.1c.3 1.4 1.1 2.7 2.3 3.5 1.4.8 3 1.2 4.7 1.1 3.3-.2 6.5-.7 9.7-1.7l1 .7-2 9c-3.3.9-6.6 1.4-10 1.4-5.6 0-10-1.5-13.1-4.5-3.1-3-4.7-7.1-4.8-12.3 0-5.2 1.5-9.3 4.5-12.3S50.6 28 55.8 28c4.5 0 7.9 1.2 10.4 3.5s3.7 5.6 3.7 9.8c0 1.5-.1 2.9-.4 4.4L68 47.5zM58.7 40c0-2.4-1-3.6-3-3.6-2.5 0-4 1.6-4.5 4.8l7.5-.3V40zm42.1 7.5-16.8.1c.3 1.4 1.1 2.7 2.3 3.5 1.4.8 3.1 1.2 4.7 1.1 3.3-.2 6.5-.7 9.7-1.7l1 .7-2 9c-3.3.9-6.6 1.4-10 1.4-5.6 0-10-1.5-13.1-4.5-3.2-3-4.7-7.1-4.7-12.3 0-5.2 1.5-9.3 4.5-12.3s7-4.5 12.2-4.5c4.5 0 7.9 1.2 10.4 3.5s3.7 5.6 3.7 9.8c0 1.5-.1 2.9-.4 4.4l-1.5 1.8zM91.5 40c0-2.4-1-3.6-3-3.6-2.5 0-4 1.6-4.5 4.8l7.4-.3.1-.9z" fill="#231F20"/><path d="m120 27.3-.2 7.9h4.6l7.9-.2.7 1-.8 9.9-8.7-.2h-3.9v.9l.5 14.2h-13.6l.7-12.9-.7-31h29.3l.8.9-.9 9.9-10.8-.4H120z" fill="url(#b)"/><path d="M159.6 28.8v11.8l-1.3.4c-.7-.4-1.6-.6-2.4-.5-1.1 0-2.2.3-3.2.7-1.1.5-2.2 1.1-3.1 1.9v3.4l.5 14.2H137l.6-12.9-.5-18.4 12.5-.8v6h.6c1.9-4 4.5-6 7.8-6 .6.1 1.1.1 1.6.2z" fill="url(#c)"/><path d="M174.2 13.1c1.2 1.3 1.8 3 1.7 4.7.1 1.9-.6 3.7-1.8 5.1-1.3 1.3-3.1 2-5 1.9-1.7.1-3.5-.5-4.7-1.7-1.2-1.3-1.7-3-1.6-4.8-.1-1.9.6-3.8 1.9-5.1 1.3-1.3 3.1-2 5-1.9 1.6 0 3.3.6 4.5 1.8zm-10.9 34.8-.5-18.4 13.2-.8-.6 17.9.5 14.2h-13.2l.6-12.9z" fill="url(#d)"/><path d="m209 47.5-16.8.1c.3 1.4 1.1 2.7 2.3 3.5 1.4.8 3 1.2 4.7 1.1 3.3-.2 6.5-.7 9.7-1.7l.9.7-2 9c-3.3.9-6.6 1.4-10 1.4-5.6 0-10-1.5-13.1-4.5-3.1-3-4.7-7.1-4.7-12.3 0-5.2 1.5-9.3 4.5-12.3s7.1-4.5 12.3-4.5c4.5 0 7.9 1.2 10.4 3.5s3.7 5.6 3.7 9.8c0 1.5-.1 2.9-.4 4.4l-1.5 1.8zm-9.4-7.5c0-2.4-1-3.6-3.1-3.6-2.5 0-4 1.6-4.5 4.8l7.5-.3.1-.9z" fill="url(#e)"/><path d="m233 60.7.7-17.9c0-2.8-1.1-4.1-3.2-4.1-1.1 0-2.2.3-3.2.9v6.8l.5 14.2h-13.3l.6-12.9-.5-18.4 12.5-.8v4.7h.5c2.2-2.3 4.9-4 7.9-5 3.4 0 6 .8 7.8 2.3 1.8 1.7 2.8 4.1 2.6 6.6l-.3 9.2.5 14.2-13.1.2z" fill="url(#f)"/><path d="m281.3 46.5.1 4.1c0 .4 0 .8.2 1.2.1.2.4.4.7.3.4 0 .8-.1 1.1-.2l.8.7-1.2 6.8c-1.9 1.2-4.1 1.9-6.3 2-1.4-.1-2.7-.6-3.8-1.4-1.1-.9-2-2-2.6-3.4h-.5c-1.8 1.9-4 3.5-6.4 4.7-3.9.2-7.6-1.4-10.1-4.3-2.4-2.9-3.7-6.8-3.7-11.8 0-5.6 1.5-9.8 4.5-12.7 3-2.9 7.1-4.4 12.3-4.4.8 0 1.7.1 2.5.2l-.2-14.3 13.1-.9-.5 33.4zm-18.4-8.4c-.6.8-.9.4-.9 2.7 0 3.1.3 7.4.9 8.7.5 1.3 1.7 2.1 3 2.1 1.2 0 2.3-.5 3.2-1.4l.1-2.4-.1-10.2c-1-.4-2-.7-3-.7-1.2-.1-2.4.3-3.2 1.2z" fill="url(#g)"/><path d="m312 29.7-1.7 9.1-1.5.5c-1.5-.9-3.1-1.7-4.7-2.3-1.2-.5-2.5-.8-3.8-.8-1.2 0-1.8.4-1.8 1.2 0 .6.4 1.2 1 1.5 1.1.6 2.2 1 3.4 1.4 1.7.6 3.3 1.3 4.9 2.1 1.3.7 2.5 1.8 3.4 3 1 1.4 1.5 3.2 1.4 4.9 0 1.9-.5 3.9-1.5 5.5-1.1 1.8-2.8 3.3-4.8 4.1-2.6 1.1-5.4 1.6-8.2 1.5-3.9 0-7.8-.6-11.5-1.8l1.6-9.7 1.1-.8c1.7 1.3 3.5 2.3 5.5 3.1 1.6.7 3.3 1.1 5 1.2 1.3 0 1.9-.4 1.9-1.3 0-.6-.4-1.2-1-1.5-1.1-.6-2.2-1.1-3.4-1.4-1.7-.6-3.3-1.3-4.9-2.1-1.3-.7-2.5-1.7-3.4-3-1-1.5-1.5-3.2-1.4-5 0-2 .6-4 1.7-5.8 1.2-1.8 3-3.2 5-4.1 2.5-1.1 5.1-1.6 7.8-1.5 3.3.3 6.7.9 9.9 2z" fill="url(#h)"/><path d="M313.7 23.3h-1.1v-.8h3.2v.8h-1.1v3h-1v-3zm3-.8h1.3l.9 2.5.9-2.5h1.3v3.8h-1v-2.5l-.9 2.5h-.7l-.9-2.5v2.5h-1l.1-3.8zM113.9 10.541c.3-.1.6-.1.8-.2l1.8-.3c.6-.1 1.2 0 1.7 0 .2 0 .4 0 .6.1.3 0 .5.1.8.3.5.2.9.5 1.3.8l.4.4c.1.1.1.1.2.1.5-.3 1.1-.3 1.7-.4.3-.1.6-.1.8-.1.4 0 .8.3 1 .7.3.5.6 1.1.7 1.7.1.6.1 1.2.1 1.8v2.1c0 .5.1 1.1.1 1.6 0 .8 0 1.5-.1 2.3 0 .6-.2 1.2-.5 1.7-.2.3-.5.5-.9.6-.6.2-1.3.4-2 .4-.3 0-.6 0-1-.1-.5-.1-.7-.4-.8-.9 0-.4-.1-.8-.1-1.2 0-.3.1-.5.5-.5h.7c.2.1.2.2.2.4s0 .4.1.6c0 .2.1.3.3.2h.2c.6-.2 1.1-.4 1.6-.9.2-.2.3-.5.3-.8 0-.6 0-1.1.1-1.7 0-1 .1-2 .1-3 0-.7-.1-1.3-.2-2 0-.3-.2-.6-.3-.9-.2-.5-.6-.7-1.1-.8-.3 0-.6-.1-.9-.1 0 0 0 .1.1.1.1.3.2.5.3.8.2.6.3 1.2.4 1.8.1.5.1 1 .1 1.5 0 .2-.1.3-.3.4-.3.1-.6.1-.9 0-.2-.1-.4-.3-.4-.5v-1.7c0-.3 0-.3-.3-.2h-.2v.9c0 .3 0 .6-.1.9 0 .2-.1.3-.2.4-.1.2-.3.2-.5.2s-.5 0-.7-.1c-.1-.1-.2-.2-.2-.4v-.8c0-.5 0-1.1-.1-1.6 0-.1-.1-.2-.2-.2l-1.5-.3c-.7-.1-1.4 0-2.1 0-.5.1-1 .2-1.5.2-.5.1-.9.3-1.3.6 0 0-.1.1-.1.2 0 .4 0 .8.1 1.2 0 .2.1.4.1.6v.7c0 .2-.1.2-.2.2-.3 0-.5 0-.8-.1-.1 0-.3 0-.4-.1-.3-.1-.3-.4-.3-.6 0-.7-.1-1.5-.1-2.2 0-.1 0-.1-.1-.1h-.4v2.1c0 .3-.1.6-.2.8 0 .1-.1.2-.3.2-.4 0-.8-.1-1.1-.4-.2-.2-.2-.5-.3-.7 0-.3-.1-.7-.1-1 0-1.1 0-2.1-.1-3.2v-.4c0-.1 0-.2-.2-.2-.5 0-1 0-1.5-.2s-.9-.6-1.2-1c-.2-.3-.3-.7-.3-1.1v-1.7c0-.3.1-.5.1-.8.1-.8.2-1.6.2-2.4.1-.8.1-1.6.2-2.4 0-.3.1-.7.1-1 0-.1.1-.2.2-.1l.2.2c.4.5.6 1.1.8 1.7.1.2.1.3.2.5.1 0 .2-.1.3-.1.5-.2 1-.3 1.5-.4.5-.1 1-.1 1.5-.1s.9.2 1.3.3c.2.1.4.2.7.4 0-.1.1-.3.1-.4.2-.5.4-1.1.6-1.6.1-.4.3-.7.4-1.1 0-.1.1-.2.2-.1.1 0 .1.1.2.1 0 .1.1.2.1.3v1.3c0 .7.1 1.4.1 2.1 0 .4 0 .9.1 1.3 0 .6 0 1.2.1 1.8 0 .7 0 1.3-.2 2-.1.4-.2.7-.5 1 .5.5.5.5.4.6zm-1.9-4.9-.3-.3c-.1-.1-.1-.1-.2 0-.3.2-.5.5-.6.8v.5c0 .4.2.6.6.6.3 0 .5-.1.7-.4.1-.3.1-.5.2-.8 0-.1-.2-.3-.4-.4zm-3-.3c-.3 0-.5.2-.8.3-.1.1-.2.1-.3.2-.2.3-.3.7-.2 1 .1.5.5.8 1 .7.1 0 .2-.1.3-.1.2-.1.3-.2.4-.4 0-.2.1-.3.1-.5v-.6c-.1-.2-.2-.3-.3-.5 0-.1-.1-.1-.2-.1z" fill="#010101"/><path d="M109.5 5.941v.6c0 .2-.1.3-.1.5-.1.2-.2.4-.4.4-.1 0-.2.1-.3.1-.5.1-.9-.2-1-.7-.1-.4 0-.7.2-1 .1-.1.2-.2.3-.2.2-.2.5-.3.8-.3l.4.4s.1.1.1.2z" fill="#FAEC13"/><path d="M112 5.641c.2.1.4.3.3.5 0 .3-.1.5-.2.8-.1.3-.4.5-.7.4-.4-.1-.6-.3-.6-.6v-.5c0-.4.3-.6.6-.8.1.1.2.2.4.2.1 0 .2.1.2 0zm-.4.4c-.1.1-.1.3-.1.4h.1c.1-.1.1-.2 0-.4z" fill="#F9EC14"/><path d="m109.5 5.941-.2-.2-.4-.4c.1 0 .2 0 .3.1.2.1.3.3.3.5z" fill="#E7E3BA"/><path d="M112 5.641c-.1.1-.1 0-.1 0-.1-.1-.2-.2-.4-.2.1-.1.1-.1.2 0 .1 0 .2.1.3.2z" fill="#E1DC9B"/><path d="M111.6 6.041c.1.2.1.3 0 .4h-.1c.1-.1.1-.2.1-.4z" fill="#F6EF8F"/></g><defs><linearGradient id="b" x1="106.45" y1="38.804" x2="136.47" y2="38.804" gradientUnits="userSpaceOnUse"><stop stop-color="#03B14C"/><stop offset="1" stop-color="#54B848"/></linearGradient><linearGradient id="c" x1="137" y1="44.684" x2="159.64" y2="44.684" gradientUnits="userSpaceOnUse"><stop stop-color="#03B14C"/><stop offset="1" stop-color="#54B848"/></linearGradient><linearGradient id="d" x1="162.69" y1="36.088" x2="175.97" y2="36.088" gradientUnits="userSpaceOnUse"><stop stop-color="#03B14C"/><stop offset="1" stop-color="#54B848"/></linearGradient><linearGradient id="e" x1="180" y1="44.784" x2="210.83" y2="44.784" gradientUnits="userSpaceOnUse"><stop stop-color="#03B14C"/><stop offset="1" stop-color="#54B848"/></linearGradient><linearGradient id="f" x1="214.59" y1="44.569" x2="246.2" y2="44.569" gradientUnits="userSpaceOnUse"><stop stop-color="#03B14C"/><stop offset="1" stop-color="#54B848"/></linearGradient><linearGradient id="g" x1="249.69" y1="37.269" x2="284.18" y2="37.269" gradientUnits="userSpaceOnUse"><stop stop-color="#03B14C"/><stop offset="1" stop-color="#54B848"/></linearGradient><linearGradient id="h" x1="286.49" y1="44.752" x2="312.59" y2="44.752" gradientUnits="userSpaceOnUse"><stop stop-color="#03B14C"/><stop offset="1" stop-color="#54B848"/></linearGradient><clipPath id="a"><path fill="#fff" d="M0 0h321.1v61.6H0z"/></clipPath></defs></svg>